<svg viewBox="0 0 640 100" xmlns="http://www.w3.org/2000/svg">
  <!-- Option 4: Cloud Letters -->
  <g transform="translate(20, 10)">
    <!-- C -->
    <path d="M10,50 
             C10,30 15,25 25,25 
             C35,25 45,30 45,40
             C55,35 65,40 65,50
             C65,60 55,65 45,60
             C45,70 35,75 25,75
             C15,75 10,70 10,60
             C0,55 0,45 10,50 Z" 
          fill="#D4C1F9" stroke="#6930C3" stroke-width="2" />
    
    <!-- A -->
    <path d="M85,50 
             C85,30 90,25 100,25 
             C108,20 120,25 125,35
             C130,25 142,20 150,25
             C160,25 165,30 165,50
             C165,70 160,75 150,75
             C130,75 120,65 125,55
             C130,65 120,75 100,75
             C90,75 85,70 85,50 Z" 
          fill="#FFD4E5" stroke="#6930C3" stroke-width="2" />
    
    <!-- Middle line for A -->
    <path d="M105,50 C115,48 135,48 145,50" stroke="#6930C3" stroke-width="2" fill="none" />
    
    <!-- T -->
    <path d="M175,30 
             C175,20 180,15 190,15 
             C210,15 240,15 260,15
             C270,15 275,20 275,30
             C275,40 270,45 260,45
             C250,40 240,40 230,45
             C230,60 235,65 235,75
             C235,85 225,90 215,90
             C205,90 195,85 195,75
             C195,65 200,60 200,45
             C190,40 180,40 190,45
             C180,45 175,40 175,30 Z" 
          fill="#BDE0FE" stroke="#6930C3" stroke-width="2" />
    
    <!-- N -->
    <path d="M285,30 
             C285,20 290,15 300,15 
             C310,15 315,20 315,35
             C315,50 315,65 315,80
             C315,25 365,25 365,80
             C365,20 390,15 385,55
             C385,65 380,70 370,70
             C360,70 355,65 355,55
             C355,85 285,85 285,30 Z" 
          fill="#A2D2FF" stroke="#6930C3" stroke-width="2" />
    
    <!-- 8 -->
    <path d="M410,35 
             C410,25 415,20 425,20 
             C435,20 450,25 450,40
             C450,55 430,60 425,60
             C420,60 400,55 400,40
             C400,25 405,20 410,35 Z" 
          fill="#FFC8DD" stroke="#6930C3" stroke-width="2" />
    
    <path d="M410,65 
             C410,75 415,80 425,80 
             C435,80 450,75 450,60
             C450,45 430,40 425,40
             C420,40 400,45 400,60
             C400,75 405,80 410,65 Z" 
          fill="#FFC8DD" stroke="#6930C3" stroke-width="2" />
    
    <!-- . -->
    <path d="M470,65 
             C470,60 473,58 478,58 
             C483,58 486,60 486,65
             C486,70 483,72 478,72
             C473,72 470,70 470,65 Z" 
          fill="#6930C3" stroke="#6930C3" stroke-width="1" />
    
    <!-- U -->
    <path d="M500,30 
             C500,20 505,15 515,15 
             C525,15 530,20 530,35
             C530,50 530,60 530,65
             C530,75 540,75 550,75
             C560,75 570,75 570,65
             C570,55 570,50 570,35
             C570,20 575,15 585,15
             C595,15 600,20 600,30
             C600,100 500,100 500,30 Z" 
          fill="#C7F9CC" stroke="#6930C3" stroke-width="2" />
    
    <!-- S -->
    <path d="M620,30 
             C620,20 625,15 635,15 
             C650,15 665,20 665,35
             C665,50 640,55 635,60
             C630,65 630,70 640,70
             C650,70 660,65 665,60
             C670,65 675,70 675,75
             C675,85 665,90 655,90
             C640,90 620,85 620,70
             C620,55 650,50 655,45
             C660,40 650,35 640,35
             C630,35 620,40 625,45
             C615,40 610,35 620,30 Z" 
          fill="#FDFFB6" stroke="#6930C3" stroke-width="2" />
    
    <!-- Small clouds scattered -->
    <path d="M180,5 
             C180,0 185,-2 190,-2 
             C195,-2 200,0 200,5
             C205,0 210,0 215,5
             C215,10 210,12 205,12
             C200,15 190,15 185,12
             C180,12 175,10 180,5 Z" 
          fill="white" stroke="#6930C3" stroke-width="1" opacity="0.7" />
    
    <path d="M350,5 
             C350,0 355,-2 360,-2 
             C365,-2 370,0 370,5
             C375,0 380,0 385,5
             C385,10 380,12 375,12
             C370,15 360,15 355,12
             C350,12 345,10 350,5 Z" 
          fill="white" stroke="#6930C3" stroke-width="1" opacity="0.7" />
    
    <path d="M520,5 
             C520,0 525,-2 530,-2 
             C535,-2 540,0 540,5
             C545,0 550,0 555,5
             C555,10 550,12 545,12
             C540,15 530,15 525,12
             C520,12 515,10 520,5 Z" 
          fill="white" stroke="#6930C3" stroke-width="1" opacity="0.7" />
    
    <!-- Stars scattered -->
    <path d="M280,5 L283,12 L290,12 L285,17 L287,25 L280,20 L273,25 L275,17 L270,12 L277,12 Z" 
          fill="#FFE459" stroke="#6930C3" stroke-width="1" />
    <path d="M450,5 L453,12 L460,12 L455,17 L457,25 L450,20 L443,25 L445,17 L440,12 L447,12 Z" 
          fill="#FFE459" stroke="#6930C3" stroke-width="1" />
    <path d="M620,5 L623,12 L630,12 L625,17 L627,25 L620,20 L613,25 L615,17 L610,12 L617,12 Z" 
          fill="#FFE459" stroke="#6930C3" stroke-width="1" />
  </g>
</svg>
