<svg xmlns="http://www.w3.org/2000/svg" width="900" height="540" viewBox="0 0 900 540" role="img" aria-label="Pac-man maze preview">
  <defs>
    <linearGradient id="bg" x1="0" y1="0" x2="1" y2="1">
      <stop offset="0" stop-color="#04051a"/>
      <stop offset="1" stop-color="#050b33"/>
    </linearGradient>
  </defs>
  <rect width="900" height="540" fill="url(#bg)"/>
  <g fill="none" stroke="#2f5dff" stroke-width="10" opacity="0.95">
    <rect x="80" y="60" width="740" height="420" rx="16"/>
    <rect x="150" y="130" width="600" height="280" rx="12"/>
    <path d="M450 130v280M150 270h600M260 130v140M640 270v140M330 410h240"/>
  </g>
  <g fill="#ffd166">
    <circle cx="214" cy="166" r="8"/>
    <circle cx="264" cy="166" r="8"/>
    <circle cx="314" cy="166" r="8"/>
    <circle cx="364" cy="166" r="8"/>
    <circle cx="414" cy="166" r="8"/>
    <circle cx="486" cy="166" r="8"/>
    <circle cx="536" cy="166" r="8"/>
    <circle cx="586" cy="166" r="8"/>
    <circle cx="636" cy="166" r="8"/>
    <circle cx="686" cy="166" r="8"/>
    <circle cx="214" cy="378" r="8"/>
    <circle cx="264" cy="378" r="8"/>
    <circle cx="314" cy="378" r="8"/>
    <circle cx="364" cy="378" r="8"/>
    <circle cx="414" cy="378" r="8"/>
    <circle cx="486" cy="378" r="8"/>
    <circle cx="536" cy="378" r="8"/>
    <circle cx="586" cy="378" r="8"/>
    <circle cx="636" cy="378" r="8"/>
    <circle cx="686" cy="378" r="8"/>
  </g>
  <path d="M356 250A58 58 0 1 1 356 290L405 270Z" fill="#ffe600"/>
  <g>
    <path d="M548 239a34 34 0 0 1 68 0v32h-68z" fill="#ff4d4d"/>
    <circle cx="571" cy="248" r="7" fill="#fff"/>
    <circle cx="593" cy="248" r="7" fill="#fff"/>
  </g>
  <text x="450" y="505" text-anchor="middle" fill="#ffd166" font-size="56" font-family="Verdana, sans-serif" font-weight="700">PAC-MAN</text>
</svg>
