<svg xmlns="http://www.w3.org/2000/svg" viewBox="0 0 377.001 36.643" role="img" aria-label="Navy Federal Credit Union" fill="#0054a6">
  <g>
    <path d="M36.68 18.338A18.315 18.315 0 0 0 19.972.136 6.614 6.614 0 0 0 18.342 0a5.093 5.093 0 0 0-1.494.136A18.262 18.262 0 0 0 3.807 7.2l-.407.543-.272.408a18.234 18.234 0 0 0 5.026 25.4 17.526 17.526 0 0 0 8.558 2.988 13.092 13.092 0 0 0 3.26 0A18.315 18.315 0 0 0 36.68 18.338zm-9.916 13.584h-2.581a23.178 23.178 0 0 0 1.766-5.162h4.211a18.9 18.9 0 0 1-3.4 5.162zM6.388 26.761H10.6a23.177 23.177 0 0 0 1.766 5.162H9.92a19.344 19.344 0 0 1-3.532-5.162zm-5.162-7.879h2.309a18.633 18.633 0 0 0 1.223 6.656H2.72a15.9 15.9 0 0 1-1.494-6.656zM6.66 9.509a16.452 16.452 0 0 1 3.26-4.755h2.58c-.543 1.358-1.087 2.581-1.494 3.939l-.136.543-.136.543v.136H6.388zm23.5.408h-4.211a23.178 23.178 0 0 0-1.766-5.162h2.581a16.229 16.229 0 0 1 3.396 5.161zm5.3 7.879h-2.311a18.633 18.633 0 0 0-1.223-6.656h1.9a18.441 18.441 0 0 1 1.632 6.66zm-3.532 0H26.9a35.671 35.671 0 0 0-.679-6.656H30.7a18.1 18.1 0 0 1 1.226 6.66zM11.957 9.509a20.052 20.052 0 0 1 1.766-4.754h3.939v5.161h-5.705zm1.223-5.841h-1.9A9.486 9.486 0 0 1 14.538 1.9a8.721 8.721 0 0 0-1.358 1.768zm4.62-2.445v2.445h-3.26a5.423 5.423 0 0 1 3.26-2.445zm1.087 2.445V1.223a5.843 5.843 0 0 1 3.26 2.445zm3.938 1.222a21.262 21.262 0 0 1 1.9 5.162h-5.84V4.89zM17.8 11.139V17.8h-6.929a35.671 35.671 0 0 1 .679-6.656h6.25zm0 7.743v6.656h-6.114a27.07 27.07 0 0 1-.815-6.656zm0 7.879v5.162h-3.941a22.507 22.507 0 0 1-1.9-5.026zm0 6.249v2.445a5.843 5.843 0 0 1-3.26-2.445zm1.087 0h3.26a5.423 5.423 0 0 1-3.26 2.445zm0-1.087v-5.162h5.841a23.575 23.575 0 0 1-1.9 5.162zm0-6.249v-6.656h6.792A35.67 35.67 0 0 1 25 25.674zm0-7.879v-6.656H25a36.882 36.882 0 0 1 .679 6.656zM23.5 3.668a16.481 16.481 0 0 0-1.358-1.9 9.8 9.8 0 0 1 3.26 1.9zm-13.037 7.471a36.882 36.882 0 0 0-.679 6.661H4.758a22.173 22.173 0 0 1 1.223-6.656h4.483zM3.535 17.8H1.226a15.9 15.9 0 0 1 1.494-6.661h2.038A21.418 21.418 0 0 0 3.535 17.8zm1.223 1.087h5.026a35.67 35.67 0 0 0 .679 6.656H5.981a18.1 18.1 0 0 1-1.223-6.661zm8.422 14.122a8.721 8.721 0 0 0 1.358 1.766 12.505 12.505 0 0 1-3.26-1.766zm10.324 0h1.9a10.909 10.909 0 0 1-3.26 1.766 8.721 8.721 0 0 0 1.356-1.766zm2.717-7.335a36.882 36.882 0 0 0 .679-6.656h5.026a22.173 22.173 0 0 1-1.226 6.656zm6.928-6.792h2.309a18.441 18.441 0 0 1-1.63 6.656H31.79a21.5 21.5 0 0 0 1.358-6.656zm.136-8.965h-1.9a20.154 20.154 0 0 0-3.124-5.162h.539a17.808 17.808 0 0 1 4.483 5.162zM7.746 4.89h.544a17.259 17.259 0 0 0-2.445 3.668l-.272.408-.273.543-.136.408H3.4a14.318 14.318 0 0 1 .95-1.495A16.816 16.816 0 0 1 7.746 4.89zM3.4 26.761h1.765a20.154 20.154 0 0 0 3.125 5.161h-.544A17.621 17.621 0 0 1 3.4 26.761zm6.113 6.249zM28.8 31.922h-.543a15.47 15.47 0 0 0 3.124-5.162h1.766a14.286 14.286 0 0 1-4.347 5.162z"/>
    <path d="M217.075 220.179H228.1v3.263h-6.732v3.943h6.257v3.263h-6.257v6.432h-4.294z" transform="translate(-104.367 -210.721)"/>
    <path d="M240.709 220.179H252.4v3.239h-7.422v3.521h6.99v3.239h-6.99v3.615h7.595v3.286h-11.864z" transform="translate(-115.909 -210.721)"/>
    <path d="M266.317 220.089h6.583c1.855 0 4.315.211 5.933 1.409 2.309 1.713 2.934 4.506 2.934 7.018 0 3.755-1.1 6.525-4.25 7.863a12.323 12.323 0 0 1-4.574.657h-6.624zm4.423 13.684h1.86c2.87-.024 4.7-1.361 4.7-5.3 0-5.14-3.538-5.14-4.854-5.14l-1.7-.024z" transform="translate(-128.42 -210.674)"/>
    <path d="M298.474 220.179h11.694v3.239h-7.422v3.521h6.991v3.239h-6.991v3.615h7.595v3.286h-11.867z" transform="translate(-144.115 -210.721)"/>
    <path d="M323.788 220.089h7.207c2.8 0 3.862.188 4.79 1.221a4.546 4.546 0 0 1 1.079 3.286 3.346 3.346 0 0 1-1.424 3.145 5.4 5.4 0 0 1-2.373.868v.094c3.021.094 3.193 1.549 3.539 4.154a29.352 29.352 0 0 0 .733 4.178h-4.682a29.157 29.157 0 0 1-.518-3.826c-.194-2.042-.259-2.793-2.2-2.793h-1.812v6.619h-4.337zm4.337 7.276h1.618a5.478 5.478 0 0 0 1.791-.141 1.965 1.965 0 0 0 1.143-1.924c0-2.089-1.683-2.089-2.934-2.089h-1.618z" transform="translate(-156.479 -210.674)"/>
    <path d="M356.678 220.089h5.265l6.149 16.947h-4.876l-1.079-3.4H355.9l-1.057 3.4h-4.315zm4.466 10.421-2.007-7.112h-.065l-2.157 7.112z" transform="translate(-169.546 -210.674)"/>
    <path d="M385.792 220.089h4.38V233.7h6.991v3.333h-11.371z" transform="translate(-186.748 -210.674)"/>
    <path d="M429.5 225.092a2.376 2.376 0 0 0-2.524-2.345c-2.611 0-3.41 2.6-3.41 5.7 0 1.032.022 5.3 3.366 5.3a2.446 2.446 0 0 0 2.61-2.462h4.488c-.022 5.3-4.984 5.746-7.013 5.746-1.51 0-4.186-.281-5.912-2.252a9.9 9.9 0 0 1-2.007-6.427 10.041 10.041 0 0 1 1.963-6.45 6.993 6.993 0 0 1 5.912-2.486c2.524 0 4.444.656 5.674 2.064a5.457 5.457 0 0 1 1.295 3.612z" transform="translate(-203.021 -210.346)"/>
    <path d="M449.911 220.089h7.207c2.805 0 3.862.188 4.79 1.221a4.548 4.548 0 0 1 1.079 3.286 3.347 3.347 0 0 1-1.424 3.145 5.408 5.408 0 0 1-2.374.868v.094c3.021.094 3.193 1.549 3.539 4.154a29.387 29.387 0 0 0 .734 4.178h-4.682a28.982 28.982 0 0 1-.518-3.826c-.194-2.042-.259-2.793-2.2-2.793h-1.812v6.619h-4.337zm4.337 7.276h1.618a5.476 5.476 0 0 0 1.791-.141 1.965 1.965 0 0 0 1.143-1.924c0-2.089-1.683-2.089-2.934-2.089h-1.618z" transform="translate(-218.063 -210.674)"/>
    <path d="M477.869 220.179h11.695v3.239h-7.422v3.521h6.99v3.239h-6.99v3.615h7.595v3.286h-11.868z" transform="translate(-231.708 -210.721)"/>
    <path d="M503.519 220.089h6.581c1.856 0 4.316.211 5.934 1.409 2.309 1.713 2.934 4.506 2.934 7.018 0 3.755-1.1 6.525-4.25 7.863a12.328 12.328 0 0 1-4.575.657h-6.624zm4.423 13.684h1.858c2.87-.024 4.7-1.361 4.7-5.3 0-5.14-3.539-5.14-4.855-5.14l-1.7-.024z" transform="translate(-244.244 -210.674)"/>
    <path d="M535.424 220.089h4.445v16.947h-4.445z" transform="translate(-259.785 -210.674)"/>
    <path d="M550.372 223.445h-4.747v-3.356h13.96v3.356h-4.855v13.591h-4.359z" transform="translate(-264.799 -210.674)"/>
    <path d="M588.188 220.089v10.065a4.954 4.954 0 0 0 .5 2.557 3.037 3.037 0 0 0 2.654 1.384c2.74 0 3.107-2.416 3.107-4.106v-9.9h4.207v9.811c0 1.877-.237 3.918-1.208 5.161-1.511 2.018-4.294 2.416-6.257 2.416-7.357 0-7.379-4.973-7.379-7.742l.022-9.643z" transform="translate(-283.447 -210.695)"/>
    <path d="M616.09 220.089h5.955l5.265 12.628-.043-12.628h3.776v16.947h-5.826l-5.373-13.167.043 13.167h-3.8z" transform="translate(-299.409 -210.674)"/>
    <path d="M648.247 220.089h4.445v16.947h-4.445z" transform="translate(-315.04 -210.674)"/>
    <path d="M660.794 221.537a8.333 8.333 0 0 1 6.084-2.345c6.214 0 7.9 4.854 7.9 8.982 0 6.755-4.4 8.818-8.113 8.818-4.142 0-8-2.486-8-8.794-.007-1.126.166-4.503 2.129-6.661zm5.912 12.008c3.086 0 3.6-3.1 3.6-5.441a7.5 7.5 0 0 0-.992-4.292 2.95 2.95 0 0 0-2.589-1.219c-2.848 0-3.625 2.674-3.625 5.581 0 2.697.736 5.371 3.606 5.371z" transform="translate(-320.098 -210.236)"/>
    <path d="M692.032 220.089h5.955l5.265 12.628-.043-12.628h3.776v16.947h-5.826l-5.372-13.167.043 13.167h-3.8z" transform="translate(-336.318 -210.674)"/>
    <path d="M81.479 220.1h5.955l5.266 12.625-.044-12.625h3.776v16.946h-5.826l-5.372-13.167.043 13.167h-3.8z" transform="translate(-37.952 -210.679)"/>
    <path d="M118.442 220.1h5.265l6.149 16.946h-4.876l-1.079-3.4h-6.235l-1.057 3.4h-4.316zm4.466 10.421-2.007-7.112h-.065l-2.158 7.112z" transform="translate(-52.928 -210.679)"/>
    <path d="M140.965 220.1h4.768l3.538 12.276L153 220.1h4.3l-5.675 16.946h-5.157z" transform="translate(-66.864 -210.679)"/>
    <path d="m178.421 220.1 3.41 7.112 3.517-7.112h4.445l-6.084 10.961v5.985h-4.359v-6.2l-5.933-10.75z" transform="translate(-82.637 -210.679)"/>
    <path d="M726 247.031a1.619 1.619 0 1 1 1.624 1.666 1.612 1.612 0 0 1-1.624-1.666zm1.624 2a1.993 1.993 0 1 0-2.024-2 1.991 1.991 0 0 0 2.019 1.999zm-.422-1.839h.4l.607 1h.39l-.654-1.011a.6.6 0 0 0 .6-.633c0-.454-.269-.654-.812-.654h-.875v2.3h.348zm0-.3v-.712h.474c.243 0 .5.052.5.338 0 .353-.263.374-.559.374z" transform="translate(-352.633 -222.865)"/>
  </g>
</svg>
